<mxfile host="app.diagrams.net" modified="2023-11-02T05:52:18.521Z" agent="Mozilla/5.0 (Windows NT 10.0; Win64; x64) AppleWebKit/537.36 (KHTML, like Gecko) Chrome/118.0.0.0 Whale/3.23.214.10 Safari/537.36" version="22.0.8" etag="BY74RmxTcpf_HnG58Xbf" type="github">
  <diagram name="페이지-1" id="yvfM14-lTbsYd5hGwklW">
    <mxGraphModel>
      <root>
        <mxCell id="0" />
        <mxCell id="1" parent="0" />
      </root>
    </mxGraphModel>
  </diagram>
</mxfile>
